<?xml version="1.0" encoding="UTF-8" standalone="no"?>
<svg
   xmlns:dc="http://purl.org/dc/elements/1.1/"
   xmlns:cc="http://creativecommons.org/ns#"
   xmlns:rdf="http://www.w3.org/1999/02/22-rdf-syntax-ns#"
   xmlns:svg="http://www.w3.org/2000/svg"
   xmlns="http://www.w3.org/2000/svg"
   xmlns:sodipodi="http://sodipodi.sourceforge.net/DTD/sodipodi-0.dtd"
   xmlns:inkscape="http://www.inkscape.org/namespaces/inkscape"
   width="19cm"
   height="10cm"
   viewBox="0 0 190 99.999997"
   version="1.1"
   id="svg8"
   inkscape:version="1.0.2 (e86c870879, 2021-01-15)"
   sodipodi:docname="socialshare-workshop.svg">
  <defs
     id="defs2">
    <clipPath
       clipPathUnits="userSpaceOnUse"
       id="clipPath1410">
      <path
         d="M 0,800 H 1280 V 0 H 0 Z"
         id="path1408" />
    </clipPath>
    <clipPath
       clipPathUnits="userSpaceOnUse"
       id="clipPath1480">
      <path
         d="m 666.918,546.555 h 22.284 v -9.887 h -22.284 z"
         id="path1478" />
    </clipPath>
    <clipPath
       clipPathUnits="userSpaceOnUse"
       id="clipPath1484">
      <path
         d="m 689.202,536.668 h -22.284 v 9.887 h 22.284 z"
         id="path1482" />
    </clipPath>
    <linearGradient
       x1="0"
       y1="0"
       x2="1"
       y2="0"
       gradientUnits="userSpaceOnUse"
       gradientTransform="matrix(0,13.614371,13.614371,0,678.0603,533.57214)"
       spreadMethod="pad"
       id="linearGradient1496">
      <stop
         style="stop-opacity:1;stop-color:#ffffff"
         offset="0"
         id="stop1490" />
      <stop
         style="stop-opacity:0;stop-color:#ffffff"
         offset="0.74506765"
         id="stop1492" />
      <stop
         style="stop-opacity:0;stop-color:#ffffff"
         offset="1"
         id="stop1494" />
    </linearGradient>
    <mask
       maskUnits="userSpaceOnUse"
       x="0"
       y="0"
       width="1"
       height="1"
       id="mask1498">
      <g
         id="g1508">
        <g
           id="g1506">
          <g
             id="g1504">
            <g
               id="g1502">
              <path
                 d="M -32768,32767 H 32767 V -32768 H -32768 Z"
                 style="fill:url(#linearGradient1496);stroke:none"
                 id="path1500" />
            </g>
          </g>
        </g>
      </g>
    </mask>
    <linearGradient
       x1="0"
       y1="0"
       x2="1"
       y2="0"
       gradientUnits="userSpaceOnUse"
       gradientTransform="matrix(0,13.614371,13.614371,0,678.0603,533.57214)"
       spreadMethod="pad"
       id="linearGradient1516">
      <stop
         style="stop-opacity:1;stop-color:#231f20"
         offset="0"
         id="stop1510" />
      <stop
         style="stop-opacity:1;stop-color:#231f20"
         offset="0.74506765"
         id="stop1512" />
      <stop
         style="stop-opacity:1;stop-color:#231f20"
         offset="1"
         id="stop1514" />
    </linearGradient>
    <clipPath
       clipPathUnits="userSpaceOnUse"
       id="clipPath1542">
      <path
         d="m 781.407,499.904 h 22.387 v -9.926 h -22.387 z"
         id="path1540" />
    </clipPath>
    <clipPath
       clipPathUnits="userSpaceOnUse"
       id="clipPath1546">
      <path
         d="m 803.794,489.978 h -22.387 v 9.926 h 22.387 z"
         id="path1544" />
    </clipPath>
    <linearGradient
       x1="0"
       y1="0"
       x2="1"
       y2="0"
       gradientUnits="userSpaceOnUse"
       gradientTransform="matrix(0,13.669017,13.669017,0,792.60065,486.86978)"
       spreadMethod="pad"
       id="linearGradient1558">
      <stop
         style="stop-opacity:1;stop-color:#ffffff"
         offset="0"
         id="stop1552" />
      <stop
         style="stop-opacity:0;stop-color:#ffffff"
         offset="0.74506765"
         id="stop1554" />
      <stop
         style="stop-opacity:0;stop-color:#ffffff"
         offset="1"
         id="stop1556" />
    </linearGradient>
    <mask
       maskUnits="userSpaceOnUse"
       x="0"
       y="0"
       width="1"
       height="1"
       id="mask1560">
      <g
         id="g1570">
        <g
           id="g1568">
          <g
             id="g1566">
            <g
               id="g1564">
              <path
                 d="M -32768,32767 H 32767 V -32768 H -32768 Z"
                 style="fill:url(#linearGradient1558);stroke:none"
                 id="path1562" />
            </g>
          </g>
        </g>
      </g>
    </mask>
    <linearGradient
       x1="0"
       y1="0"
       x2="1"
       y2="0"
       gradientUnits="userSpaceOnUse"
       gradientTransform="matrix(0,13.669017,13.669017,0,792.60065,486.86978)"
       spreadMethod="pad"
       id="linearGradient1578">
      <stop
         style="stop-opacity:1;stop-color:#231f20"
         offset="0"
         id="stop1572" />
      <stop
         style="stop-opacity:1;stop-color:#231f20"
         offset="0.74506765"
         id="stop1574" />
      <stop
         style="stop-opacity:1;stop-color:#231f20"
         offset="1"
         id="stop1576" />
    </linearGradient>
    <clipPath
       clipPathUnits="userSpaceOnUse"
       id="clipPath1604">
      <path
         d="m 781.064,467.093 h 22.29 v -10.191 h -22.29 z"
         id="path1602" />
    </clipPath>
    <clipPath
       clipPathUnits="userSpaceOnUse"
       id="clipPath1608">
      <path
         d="m 781.064,467.093 h 22.289 v -10.191 h -22.289 z"
         id="path1606" />
    </clipPath>
    <linearGradient
       x1="0"
       y1="0"
       x2="1"
       y2="0"
       gradientUnits="userSpaceOnUse"
       gradientTransform="matrix(0,-14.034155,-14.034155,0,792.20886,470.28464)"
       spreadMethod="pad"
       id="linearGradient1620">
      <stop
         style="stop-opacity:1;stop-color:#ffffff"
         offset="0"
         id="stop1614" />
      <stop
         style="stop-opacity:0;stop-color:#ffffff"
         offset="0.74506765"
         id="stop1616" />
      <stop
         style="stop-opacity:0;stop-color:#ffffff"
         offset="1"
         id="stop1618" />
    </linearGradient>
    <mask
       maskUnits="userSpaceOnUse"
       x="0"
       y="0"
       width="1"
       height="1"
       id="mask1622">
      <g
         id="g1632">
        <g
           id="g1630">
          <g
             id="g1628">
            <g
               id="g1626">
              <path
                 d="M -32768,32767 H 32767 V -32768 H -32768 Z"
                 style="fill:url(#linearGradient1620);stroke:none"
                 id="path1624" />
            </g>
          </g>
        </g>
      </g>
    </mask>
    <linearGradient
       x1="0"
       y1="0"
       x2="1"
       y2="0"
       gradientUnits="userSpaceOnUse"
       gradientTransform="matrix(0,-14.034155,-14.034155,0,792.20886,470.28464)"
       spreadMethod="pad"
       id="linearGradient1640">
      <stop
         style="stop-opacity:1;stop-color:#231f20"
         offset="0"
         id="stop1634" />
      <stop
         style="stop-opacity:1;stop-color:#231f20"
         offset="0.74506765"
         id="stop1636" />
      <stop
         style="stop-opacity:1;stop-color:#231f20"
         offset="1"
         id="stop1638" />
    </linearGradient>
    <clipPath
       clipPathUnits="userSpaceOnUse"
       id="clipPath1666">
      <path
         d="m 667.101,514.254 h 22.407 v -10.162 h -22.407 z"
         id="path1664" />
    </clipPath>
    <clipPath
       clipPathUnits="userSpaceOnUse"
       id="clipPath1670">
      <path
         d="m 667.101,514.254 h 22.407 v -10.162 h -22.407 z"
         id="path1668" />
    </clipPath>
    <linearGradient
       x1="0"
       y1="0"
       x2="1"
       y2="0"
       gradientUnits="userSpaceOnUse"
       gradientTransform="matrix(0,-13.993185,-13.993185,0,678.30457,517.43616)"
       spreadMethod="pad"
       id="linearGradient1682">
      <stop
         style="stop-opacity:1;stop-color:#ffffff"
         offset="0"
         id="stop1676" />
      <stop
         style="stop-opacity:0;stop-color:#ffffff"
         offset="0.74506765"
         id="stop1678" />
      <stop
         style="stop-opacity:0;stop-color:#ffffff"
         offset="1"
         id="stop1680" />
    </linearGradient>
    <mask
       maskUnits="userSpaceOnUse"
       x="0"
       y="0"
       width="1"
       height="1"
       id="mask1684">
      <g
         id="g1694">
        <g
           id="g1692">
          <g
             id="g1690">
            <g
               id="g1688">
              <path
                 d="M -32768,32767 H 32767 V -32768 H -32768 Z"
                 style="fill:url(#linearGradient1682);stroke:none"
                 id="path1686" />
            </g>
          </g>
        </g>
      </g>
    </mask>
    <linearGradient
       x1="0"
       y1="0"
       x2="1"
       y2="0"
       gradientUnits="userSpaceOnUse"
       gradientTransform="matrix(0,-13.993185,-13.993185,0,678.30457,517.43616)"
       spreadMethod="pad"
       id="linearGradient1702">
      <stop
         style="stop-opacity:1;stop-color:#231f20"
         offset="0"
         id="stop1696" />
      <stop
         style="stop-opacity:1;stop-color:#231f20"
         offset="0.74506765"
         id="stop1698" />
      <stop
         style="stop-opacity:1;stop-color:#231f20"
         offset="1"
         id="stop1700" />
    </linearGradient>
  </defs>
  <sodipodi:namedview
     id="base"
     pagecolor="#ffffff"
     bordercolor="#666666"
     borderopacity="1.0"
     inkscape:pageopacity="1"
     inkscape:pageshadow="2"
     inkscape:zoom="0.5607454"
     inkscape:cx="318.47687"
     inkscape:cy="246.78836"
     inkscape:document-units="cm"
     inkscape:current-layer="layer1"
     inkscape:document-rotation="0"
     showgrid="false"
     inkscape:window-width="1602"
     inkscape:window-height="830"
     inkscape:window-x="1377"
     inkscape:window-y="928"
     inkscape:window-maximized="0"
     units="cm" />
  <metadata
     id="metadata5">
    <rdf:RDF>
      <cc:Work
         rdf:about="">
        <dc:format>image/svg+xml</dc:format>
        <dc:type
           rdf:resource="http://purl.org/dc/dcmitype/StillImage" />
        <dc:title />
      </cc:Work>
    </rdf:RDF>
  </metadata>
  <g
     inkscape:label="Base"
     inkscape:groupmode="layer"
     id="layer1"
     style="display:inline">
    <g
       id="g1458"
       transform="matrix(0.16647259,0,0,-0.16647259,77.443733,48.213615)">
      <path
         d="M 0,0 H 0.004 L 0,-93.475 c 0,-21.005 17.088,-38.093 38.093,-38.093 h 31.954 v 22.294 H 38.093 c -8.689,0 -15.799,7.109 -15.799,15.799 L 22.298,0 H 70.047 V 22.885 H 0 Z"
         style="fill:#26a9e0;fill-opacity:1;fill-rule:nonzero;stroke:none"
         id="path1460" />
    </g>
    <g
       id="g1462"
       transform="matrix(0.16647259,0,0,-0.16647259,38.086901,25.361857)">
      <path
         d="m 0,0 h 60.971 c 8.69,0 15.799,-7.11 15.799,-15.799 l -0.016,-7.183 h 22.294 l 0.016,7.183 c 0,21.005 -17.089,38.093 -38.093,38.093 L 0,22.294 c -21.004,0 -38.093,-17.088 -38.093,-38.093 l -0.29,-207.58 h 0.215 l -0.022,-7.471 c 0,-8.689 -7.08,-15.799 -15.735,-15.799 h -60.446 c -8.654,0 -15.735,7.11 -15.735,15.799 l 0.29,170.739 c 0,8.69 7.081,15.799 15.736,15.799 h 53.103 v 22.294 h -53.103 c -20.92,0 -37.94,-17.088 -37.94,-38.093 l -0.29,-170.739 c 0,-21.005 17.02,-38.093 37.939,-38.093 h 60.446 c 20.92,0 37.939,17.088 37.939,38.093 l 0.29,185.081 h -0.174 l 0.071,29.97 C -15.799,-7.11 -8.689,0 0,0"
         style="fill:#6354a3;fill-opacity:1;fill-rule:nonzero;stroke:none"
         id="path1464" />
    </g>
    <g
       id="g1466"
       transform="matrix(0.16647259,0,0,-0.16647259,67.240645,66.422137)">
      <path
         d="m 0,0 h -30.423 l 0.175,155.11 H 15.794 L 15.799,15.799 C 15.799,7.109 8.69,0 0,0 M 131.804,177.995 H -52.665 L -52.899,0 h -0.042 v -16.636 l -0.014,-5.658 H -52.941 -30.48 0 c 21.005,0 38.093,17.088 38.093,38.093 L 38.088,155.11 h 93.716 z"
         style="fill:#8bc53f;fill-opacity:1;fill-rule:nonzero;stroke:none"
         id="path1468" />
    </g>
    <g
       id="g1470"
       transform="matrix(0.16647259,0,0,-0.16647259,50.861622,63.766599)">
      <path
         d="m 0,0 c 0,-8.724 -7.138,-15.862 -15.862,-15.862 h -6.313 -2.429 -5.958 c -8.724,0 -15.862,7.138 -15.862,15.862 l 0.291,160.448 h -0.036 l 0.036,10.008 c 0,8.725 7.138,15.863 15.862,15.863 H 0.225 Z m 136.917,170.456 c 0,21.089 -17.157,38.246 -38.246,38.246 H -30.271 c -21.088,0 -38.246,-17.157 -38.246,-38.246 L -68.808,4.012 h 0.016 L -68.808,0 c 0,-21.089 17.157,-38.246 38.246,-38.246 h 5.958 2.429 6.313 c 21.089,0 38.246,17.157 38.246,38.246 l 0.225,186.319 h 3.614 2.274 70.174 c 8.725,0 15.863,-7.138 15.863,-15.863 l -0.005,-8.413 h 22.389 z"
         style="fill:#be1e2d;fill-opacity:1;fill-rule:nonzero;stroke:none"
         id="path1472" />
    </g>
    <g
       id="g1474"
       transform="matrix(0.16647259,0,0,-0.16647259,-60.154999,118.35884)">
      <g
         id="g1476" />
      <g
         id="g1534">
        <g
           clip-path="url(#clipPath1480)"
           opacity="0.699997"
           id="g1532">
          <g
             id="g1530">
            <g
               clip-path="url(#clipPath1484)"
               id="g1528">
              <g
                 id="g1526">
                <g
                   id="g1518" />
                <g
                   mask="url(#mask1498)"
                   id="g1524">
                  <g
                     id="g1522">
                    <path
                       d="m 689.202,536.668 h -22.284 v 9.887 h 22.284 z"
                       style="fill:url(#linearGradient1516);stroke:none"
                       id="path1520" />
                  </g>
                </g>
              </g>
            </g>
          </g>
        </g>
      </g>
    </g>
    <g
       id="g1536"
       transform="matrix(0.16647259,0,0,-0.16647259,-60.154999,118.35884)">
      <g
         id="g1538" />
      <g
         id="g1596">
        <g
           clip-path="url(#clipPath1542)"
           opacity="0.699997"
           id="g1594">
          <g
             id="g1592">
            <g
               clip-path="url(#clipPath1546)"
               id="g1590">
              <g
                 id="g1588">
                <g
                   id="g1580" />
                <g
                   mask="url(#mask1560)"
                   id="g1586">
                  <g
                     id="g1584">
                    <path
                       d="m 803.794,489.978 h -22.387 v 9.926 h 22.387 z"
                       style="fill:url(#linearGradient1578);stroke:none"
                       id="path1582" />
                  </g>
                </g>
              </g>
            </g>
          </g>
        </g>
      </g>
    </g>
    <g
       id="g1598"
       transform="matrix(0.16647259,0,0,-0.16647259,-60.154999,118.35884)">
      <g
         id="g1600" />
      <g
         id="g1658">
        <g
           clip-path="url(#clipPath1604)"
           opacity="0.699997"
           id="g1656">
          <g
             id="g1654">
            <g
               clip-path="url(#clipPath1608)"
               id="g1652">
              <g
                 id="g1650">
                <g
                   id="g1642" />
                <g
                   mask="url(#mask1622)"
                   id="g1648">
                  <g
                     id="g1646">
                    <path
                       d="m 781.064,467.093 h 22.289 v -10.191 h -22.289 z"
                       style="fill:url(#linearGradient1640);stroke:none"
                       id="path1644" />
                  </g>
                </g>
              </g>
            </g>
          </g>
        </g>
      </g>
    </g>
    <g
       id="g1660"
       transform="matrix(0.16647259,0,0,-0.16647259,-60.154999,118.35884)">
      <g
         id="g1662" />
      <g
         id="g1720">
        <g
           clip-path="url(#clipPath1666)"
           opacity="0.699997"
           id="g1718">
          <g
             id="g1716">
            <g
               clip-path="url(#clipPath1670)"
               id="g1714">
              <g
                 id="g1712">
                <g
                   id="g1704" />
                <g
                   mask="url(#mask1684)"
                   id="g1710">
                  <g
                     id="g1708">
                    <path
                       d="m 667.101,514.254 h 22.407 v -10.162 h -22.407 z"
                       style="fill:url(#linearGradient1702);stroke:none"
                       id="path1706" />
                  </g>
                </g>
              </g>
            </g>
          </g>
        </g>
      </g>
    </g>
    <text
       xml:space="preserve"
       style="font-style:normal;font-variant:normal;font-weight:normal;font-stretch:normal;font-size:20px;line-height:0;font-family:Lato;-inkscape-font-specification:'Lato, Normal';font-variant-ligatures:normal;font-variant-caps:normal;font-variant-numeric:normal;font-variant-east-asian:normal;text-align:center;letter-spacing:0px;word-spacing:0px;writing-mode:lr-tb;text-anchor:middle;white-space:pre;inline-size:240.741;fill:#000000;fill-opacity:1;stroke:none;stroke-width:0.75"
       x="588.3678"
       y="-766.71771"
       id="text2104"
       transform="matrix(0.35277776,0,0,0.35277776,-69.179767,288.88656)"><tspan
         x="588.3678"
         y="-766.71771"><tspan
           style="line-height:1.15">Teaching good-enough</tspan><tspan></tspan><tspan
           y="-766.71771"> </tspan></tspan><tspan
         x="588.3678"
         y="-743.71769"><tspan
           style="line-height:1.15">practices for computational</tspan><tspan></tspan><tspan
           y="-743.71769"> </tspan></tspan><tspan
         x="588.3678"
         y="-720.71769"><tspan
           style="line-height:1.15">research</tspan></tspan></text>
    <g
       id="g1357"
       style="display:inline">
      <g
         id="g1412"
         transform="matrix(0.16647259,0,0,-0.16647259,14.60759,78.349482)">
        <path
           d="m 0,0 c -2.811,0 -5.117,1.01 -6.92,2.812 -2.594,2.595 -2.521,5.802 -2.521,10.235 0,4.433 -0.073,7.64 2.521,10.236 1.803,1.802 4.109,2.81 6.92,2.81 4.794,0 8.543,-2.739 9.443,-8.108 H 4.361 c -0.504,2.054 -1.802,3.64 -4.323,3.64 -1.372,0 -2.488,-0.505 -3.209,-1.334 -0.973,-1.081 -1.261,-2.306 -1.261,-7.244 0,-4.937 0.288,-6.163 1.261,-7.244 0.721,-0.829 1.837,-1.334 3.209,-1.334 2.521,0 3.819,1.586 4.323,3.641 H 9.443 C 8.543,2.74 4.757,0 0,0"
           style="fill:#231f20;fill-opacity:1;fill-rule:nonzero;stroke:none"
           id="path1414" />
      </g>
      <g
         id="g1416"
         transform="matrix(0.16647259,0,0,-0.16647259,19.38224,74.97758)">
        <path
           d="M 0,0 C -0.721,0.829 -1.838,1.37 -3.207,1.37 -4.578,1.37 -5.73,0.829 -6.451,0 c -0.973,-1.081 -1.225,-2.27 -1.225,-7.208 0,-4.938 0.252,-6.127 1.225,-7.208 0.721,-0.829 1.873,-1.37 3.244,-1.37 1.369,0 2.486,0.541 3.207,1.37 0.973,1.081 1.261,2.27 1.261,7.208 C 1.261,-2.27 0.973,-1.081 0,0 m 3.713,-17.443 c -1.802,-1.802 -4.001,-2.812 -6.92,-2.812 -2.919,0 -5.155,1.01 -6.957,2.812 -2.594,2.595 -2.521,5.802 -2.521,10.235 0,4.433 -0.073,7.64 2.521,10.236 1.802,1.802 4.038,2.81 6.957,2.81 2.919,0 5.118,-1.008 6.92,-2.81 2.594,-2.596 2.559,-5.803 2.559,-10.236 0,-4.433 0.035,-7.64 -2.559,-10.235"
           style="fill:#231f20;fill-opacity:1;fill-rule:nonzero;stroke:none"
           id="path1418" />
      </g>
      <g
         id="g1420"
         transform="matrix(0.16647259,0,0,-0.16647259,23.88078,75.049546)">
        <path
           d="m 0,0 c -0.865,1.045 -2.019,1.586 -3.748,1.586 h -3.784 v -16.723 h 3.784 c 1.729,0 2.883,0.541 3.748,1.586 0.938,1.153 1.081,2.991 1.081,6.883 C 1.081,-2.775 0.938,-1.153 0,0 m 3.496,-17.156 c -1.694,-1.694 -4.109,-2.45 -6.776,-2.45 h -9.261 V 6.055 h 9.261 c 2.667,0 5.082,-0.757 6.776,-2.451 2.882,-2.883 2.594,-6.415 2.594,-10.272 0,-3.855 0.288,-7.604 -2.594,-10.488"
           style="fill:#231f20;fill-opacity:1;fill-rule:nonzero;stroke:none"
           id="path1422" />
      </g>
      <g
         id="g1424"
         transform="matrix(0.16647259,0,0,-0.16647259,26.261335,78.313407)">
        <path
           d="M 0,0 V 25.661 H 16.902 V 21.192 H 5.009 V 15.173 H 15.135 V 10.704 H 5.009 V 4.469 H 16.902 V 0 Z"
           style="fill:#231f20;fill-opacity:1;fill-rule:nonzero;stroke:none"
           id="path1426" />
      </g>
      <g
         id="g1428"
         transform="matrix(0.16647259,0,0,-0.16647259,33.933027,74.785587)">
        <path
           d="M 0,0 H -4.722 V -6.775 H 0 c 2.198,0 3.64,1.405 3.64,3.387 C 3.64,-1.405 2.198,0 0,0 m 3.892,-21.192 -5.009,10.236 H -4.722 V -21.192 H -9.731 V 4.469 H 0.323 c 5.228,0 8.326,-3.568 8.326,-7.857 0,-3.604 -2.198,-5.838 -4.686,-6.74 l 5.732,-11.064 z"
           style="fill:#231f20;fill-opacity:1;fill-rule:nonzero;stroke:none"
           id="path1430" />
      </g>
      <g
         id="g1432"
         transform="matrix(0.16647259,0,0,-0.16647259,36.751672,78.313407)">
        <path
           d="M 0,0 V 25.661 H 16.902 V 21.192 H 5.009 V 15.173 H 15.135 V 10.704 H 5.009 V 4.469 H 16.902 V 0 Z"
           style="fill:#231f20;fill-opacity:1;fill-rule:nonzero;stroke:none"
           id="path1434" />
      </g>
      <g
         id="g1436"
         transform="matrix(0.16647259,0,0,-0.16647259,41.730287,74.785587)">
        <path
           d="m 0,0 v -6.307 h 10.126 v -4.469 H 0 V -21.192 H -5.009 V 4.469 H 11.893 V 0 Z"
           style="fill:#231f20;fill-opacity:1;fill-rule:nonzero;stroke:none"
           id="path1438" />
      </g>
      <path
         d="m 44.950965,74.041505 h 0.833861 v 4.271853 h -0.833861 z"
         style="fill:#231f20;fill-opacity:1;fill-rule:nonzero;stroke:none;stroke-width:0.166473"
         id="path1440" />
      <g
         id="g1442"
         transform="matrix(0.16647259,0,0,-0.16647259,49.822018,78.313407)">
        <path
           d="M 0,0 -10.164,15.749 V 0 h -5.009 v 25.661 h 4.467 L -0.542,9.947 V 25.661 H 4.467 V 0 Z"
           style="fill:#231f20;fill-opacity:1;fill-rule:nonzero;stroke:none"
           id="path1444" />
      </g>
      <g
         id="g1446"
         transform="matrix(0.16647259,0,0,-0.16647259,52.076324,78.313407)">
        <path
           d="M 0,0 V 25.661 H 16.902 V 21.192 H 5.009 V 15.173 H 15.136 V 10.704 H 5.009 V 4.469 H 16.902 V 0 Z"
           style="fill:#231f20;fill-opacity:1;fill-rule:nonzero;stroke:none"
           id="path1448" />
      </g>
      <g
         id="g1450"
         transform="matrix(0.16647259,0,0,-0.16647259,57.840586,74.785587)">
        <path
           d="M 0,0 H -4.722 V -6.775 H 0 c 2.198,0 3.64,1.405 3.64,3.387 C 3.64,-1.405 2.198,0 0,0 m 3.892,-21.192 -5.009,10.236 H -4.722 V -21.192 H -9.731 V 4.469 H 0.323 c 5.228,0 8.326,-3.568 8.326,-7.857 0,-3.604 -2.198,-5.838 -4.686,-6.74 l 5.732,-11.064 z"
           style="fill:#231f20;fill-opacity:1;fill-rule:nonzero;stroke:none"
           id="path1452" />
      </g>
      <g
         id="g1454"
         transform="matrix(0.16647259,0,0,-0.16647259,62.290898,76.561548)">
        <path
           d="M 0,0 V -10.523 H -4.974 V 0 l -7.711,15.138 h 5.442 L -2.45,4.793 2.271,15.138 h 5.443 z"
           style="fill:#231f20;fill-opacity:1;fill-rule:nonzero;stroke:none"
           id="path1456" />
      </g>
    </g>
    <text
       xml:space="preserve"
       style="font-style:normal;font-variant:normal;font-weight:normal;font-stretch:normal;font-size:16px;line-height:0;font-family:Lato;-inkscape-font-specification:'Lato, Normal';font-variant-ligatures:normal;font-variant-caps:normal;font-variant-numeric:normal;font-variant-east-asian:normal;text-align:center;letter-spacing:0px;word-spacing:0px;writing-mode:lr-tb;text-anchor:middle;white-space:pre;inline-size:240.741;fill:#000000;fill-opacity:1;stroke:none;stroke-width:0.75"
       x="588.3678"
       y="-766.71771"
       id="text1469"
       transform="matrix(0.35277776,0,0,0.35277776,-69.025603,316.04894)"><tspan
         x="588.3678"
         y="-766.71771"><tspan
           style="font-style:normal;font-variant:normal;font-weight:normal;font-stretch:normal;font-size:16px;line-height:1.25;font-family:Lato;-inkscape-font-specification:'Lato, Normal';font-variant-ligatures:normal;font-variant-caps:normal;font-variant-numeric:normal;font-variant-east-asian:normal">git, GitHub, testing, 
</tspan></tspan><tspan
         x="588.3678"
         y="-746.71772"><tspan
           style="font-style:normal;font-variant:normal;font-weight:normal;font-stretch:normal;font-size:16px;line-height:1.25;font-family:Lato;-inkscape-font-specification:'Lato, Normal';font-variant-ligatures:normal;font-variant-caps:normal;font-variant-numeric:normal;font-variant-east-asian:normal">Jupyter,</tspan><tspan
           style="font-style:normal;font-variant:normal;font-weight:normal;font-stretch:normal;font-size:16px;line-height:1.15;font-family:Lato;-inkscape-font-specification:'Lato, Normal';font-variant-ligatures:normal;font-variant-caps:normal;font-variant-numeric:normal;font-variant-east-asian:normal"> documentation, 
</tspan></tspan><tspan
         x="588.3678"
         y="-727.51772"><tspan
           style="font-style:normal;font-variant:normal;font-weight:normal;font-stretch:normal;font-size:16px;line-height:1.15;font-family:Lato;-inkscape-font-specification:'Lato, Normal';font-variant-ligatures:normal;font-variant-caps:normal;font-variant-numeric:normal;font-variant-east-asian:normal">modular code, social coding, and
</tspan></tspan><tspan
         x="588.3678"
         y="-709.11769"><tspan
           style="font-style:normal;font-variant:normal;font-weight:normal;font-stretch:normal;font-size:16px;line-height:1.15;font-family:Lato;-inkscape-font-specification:'Lato, Normal';font-variant-ligatures:normal;font-variant-caps:normal;font-variant-numeric:normal;font-variant-east-asian:normal">reproducible research
</tspan></tspan><tspan
         x="588.3678"
         y="-690.71767"><tspan
           style="font-style:normal;font-variant:normal;font-weight:normal;font-stretch:normal;font-size:16px;line-height:1.15;font-family:Lato;-inkscape-font-specification:'Lato, Normal';font-variant-ligatures:normal;font-variant-caps:normal;font-variant-numeric:normal;font-variant-east-asian:normal">
</tspan></tspan><tspan
         x="588.3678"
         y="-672.31764"><tspan
           style="font-style:normal;font-variant:normal;font-weight:normal;font-stretch:normal;font-size:16px;line-height:1.15;font-family:Lato;-inkscape-font-specification:'Lato, Normal';font-variant-ligatures:normal;font-variant-caps:normal;font-variant-numeric:normal;font-variant-east-asian:normal">Next workshop:
</tspan></tspan><tspan
         x="588.3678"
         y="-653.91762"><tspan
           style="font-style:normal;font-variant:normal;font-weight:normal;font-stretch:normal;font-size:16px;line-height:1.15;font-family:Lato;-inkscape-font-specification:'Lato, Normal';font-variant-ligatures:normal;font-variant-caps:normal;font-variant-numeric:normal;font-variant-east-asian:normal">March 21-23 and 28-30, 2023</tspan></tspan></text>
  </g>
  <g
     inkscape:groupmode="layer"
     id="layer2"
     inkscape:label="logo hidden"
     style="display:none">
    <text
       xml:space="preserve"
       style="font-style:normal;font-variant:normal;font-weight:normal;font-stretch:normal;font-size:7.76111px;line-height:1.25;font-family:sans-serif;-inkscape-font-specification:'sans-serif, Normal';font-variant-ligatures:normal;font-variant-caps:normal;font-variant-numeric:normal;font-variant-east-asian:normal;text-align:center;letter-spacing:0px;word-spacing:0px;writing-mode:lr-tb;text-anchor:middle;display:inline;fill:#000000;fill-opacity:1;stroke:none;stroke-width:0.264583"
       x="51.095253"
       y="89.200539"
       id="text1035"><tspan
         sodipodi:role="line"
         id="tspan1033"
         x="51.095253"
         y="89.200539"
         style="font-style:normal;font-variant:normal;font-weight:normal;font-stretch:normal;font-size:7.76111px;font-family:sans-serif;-inkscape-font-specification:'sans-serif, Normal';font-variant-ligatures:normal;font-variant-caps:normal;font-variant-numeric:normal;font-variant-east-asian:normal;stroke-width:0.264583">coderefinery.org</tspan></text>
  </g>
</svg>
