<?xml version="1.0" encoding="UTF-8" standalone="no"?>
<svg
   width="1.7320508in"
   height="2in"
   viewBox="0 0 43.994088 50.8"
   version="1.1"
   id="svg869"
   inkscape:version="1.3 (0e150ed, 2023-07-21)"
   sodipodi:docname="coderefinery-hex.svg"
   xml:space="preserve"
   xmlns:inkscape="http://www.inkscape.org/namespaces/inkscape"
   xmlns:sodipodi="http://sodipodi.sourceforge.net/DTD/sodipodi-0.dtd"
   xmlns="http://www.w3.org/2000/svg"
   xmlns:svg="http://www.w3.org/2000/svg"
   xmlns:rdf="http://www.w3.org/1999/02/22-rdf-syntax-ns#"
   xmlns:cc="http://creativecommons.org/ns#"
   xmlns:dc="http://purl.org/dc/elements/1.1/"><defs
     id="defs863"><style
       id="style1833">.cls-1{fill:none;stroke:#000;stroke-linecap:round;stroke-miterlimit:11.34;stroke-width:5.67px;}</style><clipPath
       clipPathUnits="userSpaceOnUse"
       id="clipPath88"><path
         d="m 428.948,386.267 h 13.137 v -5.827 h -13.137 z"
         id="path86"
         inkscape:connector-curvature="0" /></clipPath><clipPath
       clipPathUnits="userSpaceOnUse"
       id="clipPath92"><path
         d="m 442.085,380.44 h -13.136 v 5.828 h 13.136 z"
         id="path90"
         inkscape:connector-curvature="0" /></clipPath><clipPath
       clipPathUnits="userSpaceOnUse"
       id="clipPath96"><path
         d="M -32768,32767 H 32767 V -32768 H -32768 Z"
         id="path94"
         inkscape:connector-curvature="0" /></clipPath><linearGradient
       x1="0"
       y1="0"
       x2="1"
       y2="0"
       gradientUnits="userSpaceOnUse"
       gradientTransform="matrix(0,8.025342,8.025342,0,435.51651,378.61459)"
       spreadMethod="pad"
       id="linearGradient104"><stop
         style="stop-opacity:1;stop-color:#ffffff"
         offset="0"
         id="stop98" /><stop
         style="stop-opacity:0;stop-color:#ffffff"
         offset="0.74506765"
         id="stop100" /><stop
         style="stop-opacity:0;stop-color:#ffffff"
         offset="1"
         id="stop102" /></linearGradient><mask
       maskUnits="userSpaceOnUse"
       x="0"
       y="0"
       width="1"
       height="1"
       id="mask106"><g
         id="g116"><g
           clip-path="url(#clipPath96)"
           id="g114"><g
             id="g112"><g
               id="g110"><path
                 d="M -32768,32767 H 32767 V -32768 H -32768 Z"
                 style="fill:url(#linearGradient104);stroke:none"
                 id="path108"
                 inkscape:connector-curvature="0" /></g></g></g></g></mask><linearGradient
       x1="0"
       y1="0"
       x2="1"
       y2="0"
       gradientUnits="userSpaceOnUse"
       gradientTransform="matrix(0,24.036027,24.036027,0,1194.2887,-58.919725)"
       spreadMethod="pad"
       id="linearGradient124"><stop
         style="stop-opacity:1;stop-color:#231f20"
         offset="0"
         id="stop118" /><stop
         style="stop-opacity:1;stop-color:#231f20"
         offset="0.74506765"
         id="stop120" /><stop
         style="stop-opacity:1;stop-color:#231f20"
         offset="1"
         id="stop122" /></linearGradient><clipPath
       clipPathUnits="userSpaceOnUse"
       id="clipPath150"><path
         d="m 496.437,358.768 h 13.196 v -5.851 h -13.196 z"
         id="path148"
         inkscape:connector-curvature="0" /></clipPath><clipPath
       clipPathUnits="userSpaceOnUse"
       id="clipPath154"><path
         d="m 509.633,352.917 h -13.196 v 5.851 h 13.196 z"
         id="path152"
         inkscape:connector-curvature="0" /></clipPath><clipPath
       clipPathUnits="userSpaceOnUse"
       id="clipPath158"><path
         d="M -32768,32767 H 32767 V -32768 H -32768 Z"
         id="path156"
         inkscape:connector-curvature="0" /></clipPath><linearGradient
       x1="0"
       y1="0"
       x2="1"
       y2="0"
       gradientUnits="userSpaceOnUse"
       gradientTransform="matrix(0,8.0575542,8.0575542,0,503.03528,351.08469)"
       spreadMethod="pad"
       id="linearGradient166"><stop
         style="stop-opacity:1;stop-color:#ffffff"
         offset="0"
         id="stop160" /><stop
         style="stop-opacity:0;stop-color:#ffffff"
         offset="0.74506765"
         id="stop162" /><stop
         style="stop-opacity:0;stop-color:#ffffff"
         offset="1"
         id="stop164" /></linearGradient><mask
       maskUnits="userSpaceOnUse"
       x="0"
       y="0"
       width="1"
       height="1"
       id="mask168"><g
         id="g178"><g
           clip-path="url(#clipPath158)"
           id="g176"><g
             id="g174"><g
               id="g172"><path
                 d="M -32768,32767 H 32767 V -32768 H -32768 Z"
                 style="fill:url(#linearGradient166);stroke:none"
                 id="path170"
                 inkscape:connector-curvature="0" /></g></g></g></g></mask><linearGradient
       x1="0"
       y1="0"
       x2="1"
       y2="0"
       gradientUnits="userSpaceOnUse"
       gradientTransform="matrix(0,24.132503,24.132503,0,1396.5085,-141.37221)"
       spreadMethod="pad"
       id="linearGradient186"><stop
         style="stop-opacity:1;stop-color:#231f20"
         offset="0"
         id="stop180" /><stop
         style="stop-opacity:1;stop-color:#231f20"
         offset="0.74506765"
         id="stop182" /><stop
         style="stop-opacity:1;stop-color:#231f20"
         offset="1"
         id="stop184" /></linearGradient><clipPath
       clipPathUnits="userSpaceOnUse"
       id="clipPath212"><path
         d="m 496.235,339.427 h 13.139 v -6.008 h -13.139 z"
         id="path210"
         inkscape:connector-curvature="0" /></clipPath><clipPath
       clipPathUnits="userSpaceOnUse"
       id="clipPath216"><path
         d="m 496.235,339.427 h 13.139 v -6.008 h -13.139 z"
         id="path214"
         inkscape:connector-curvature="0" /></clipPath><clipPath
       clipPathUnits="userSpaceOnUse"
       id="clipPath220"><path
         d="M -32768,32767 H 32767 V -32768 H -32768 Z"
         id="path218"
         inkscape:connector-curvature="0" /></clipPath><linearGradient
       x1="0"
       y1="0"
       x2="1"
       y2="0"
       gradientUnits="userSpaceOnUse"
       gradientTransform="matrix(0,-8.2727938,-8.2727938,0,502.80429,341.30817)"
       spreadMethod="pad"
       id="linearGradient228"><stop
         style="stop-opacity:1;stop-color:#ffffff"
         offset="0"
         id="stop222" /><stop
         style="stop-opacity:0;stop-color:#ffffff"
         offset="0.74506765"
         id="stop224" /><stop
         style="stop-opacity:0;stop-color:#ffffff"
         offset="1"
         id="stop226" /></linearGradient><mask
       maskUnits="userSpaceOnUse"
       x="0"
       y="0"
       width="1"
       height="1"
       id="mask230"><g
         id="g240"><g
           clip-path="url(#clipPath220)"
           id="g238"><g
             id="g236"><g
               id="g234"><path
                 d="M -32768,32767 H 32767 V -32768 H -32768 Z"
                 style="fill:url(#linearGradient228);stroke:none"
                 id="path232"
                 inkscape:connector-curvature="0" /></g></g></g></g></mask><linearGradient
       x1="0"
       y1="0"
       x2="1"
       y2="0"
       gradientUnits="userSpaceOnUse"
       gradientTransform="matrix(0,-24.777149,-24.777149,0,1395.8168,-170.65304)"
       spreadMethod="pad"
       id="linearGradient248"><stop
         style="stop-opacity:1;stop-color:#231f20"
         offset="0"
         id="stop242" /><stop
         style="stop-opacity:1;stop-color:#231f20"
         offset="0.74506765"
         id="stop244" /><stop
         style="stop-opacity:1;stop-color:#231f20"
         offset="1"
         id="stop246" /></linearGradient><clipPath
       clipPathUnits="userSpaceOnUse"
       id="clipPath274"><path
         d="m 429.056,367.227 h 13.209 v -5.99 h -13.209 z"
         id="path272"
         inkscape:connector-curvature="0" /></clipPath><clipPath
       clipPathUnits="userSpaceOnUse"
       id="clipPath278"><path
         d="m 429.056,367.227 h 13.208 v -5.99 h -13.208 z"
         id="path276"
         inkscape:connector-curvature="0" /></clipPath><clipPath
       clipPathUnits="userSpaceOnUse"
       id="clipPath282"><path
         d="M -32768,32767 H 32767 V -32768 H -32768 Z"
         id="path280"
         inkscape:connector-curvature="0" /></clipPath><linearGradient
       x1="0"
       y1="0"
       x2="1"
       y2="0"
       gradientUnits="userSpaceOnUse"
       gradientTransform="matrix(0,-8.2486439,-8.2486439,0,435.66049,369.10284)"
       spreadMethod="pad"
       id="linearGradient290"><stop
         style="stop-opacity:1;stop-color:#ffffff"
         offset="0"
         id="stop284" /><stop
         style="stop-opacity:0;stop-color:#ffffff"
         offset="0.74506765"
         id="stop286" /><stop
         style="stop-opacity:0;stop-color:#ffffff"
         offset="1"
         id="stop288" /></linearGradient><mask
       maskUnits="userSpaceOnUse"
       x="0"
       y="0"
       width="1"
       height="1"
       id="mask292"><g
         id="g302"><g
           clip-path="url(#clipPath282)"
           id="g300"><g
             id="g298"><g
               id="g296"><path
                 d="M -32768,32767 H 32767 V -32768 H -32768 Z"
                 style="fill:url(#linearGradient290);stroke:none"
                 id="path294"
                 inkscape:connector-curvature="0" /></g></g></g></g></mask><linearGradient
       x1="0"
       y1="0"
       x2="1"
       y2="0"
       gradientUnits="userSpaceOnUse"
       gradientTransform="matrix(0,-24.70482,-24.70482,0,1194.72,-87.40756)"
       spreadMethod="pad"
       id="linearGradient310"><stop
         style="stop-opacity:1;stop-color:#231f20"
         offset="0"
         id="stop304" /><stop
         style="stop-opacity:1;stop-color:#231f20"
         offset="0.74506765"
         id="stop306" /><stop
         style="stop-opacity:1;stop-color:#231f20"
         offset="1"
         id="stop308" /></linearGradient><clipPath
       clipPathUnits="userSpaceOnUse"
       id="clipPath1"><g
         id="g2"
         style="stroke-width:0.13268"
         transform="matrix(7.5369401,0,0,-7.5369401,266.00943,494.94433)"><path
           d="M -35.294089,-15.569139 H 78.66436 V 65.669135 H -35.294089 Z"
           id="path2"
           inkscape:connector-curvature="0"
           style="stroke-width:0.13268" /></g></clipPath><clipPath
       clipPathUnits="userSpaceOnUse"
       id="clipPath2"><g
         id="g3"
         style="stroke-width:0.13268"
         transform="matrix(7.5369401,0,0,-7.5369401,266.00943,494.94433)"><path
           d="M -35.294089,-15.569139 H 78.66436 V 65.669135 H -35.294089 Z"
           id="path3"
           inkscape:connector-curvature="0"
           style="stroke-width:0.13268" /></g></clipPath><clipPath
       clipPathUnits="userSpaceOnUse"
       id="clipPath3"><g
         id="g4"
         style="stroke-width:0.13268"
         transform="matrix(7.5369401,0,0,-7.5369401,266.00943,494.94433)"><path
           d="M -35.294089,-15.569139 H 78.66436 V 65.669135 H -35.294089 Z"
           id="path4"
           inkscape:connector-curvature="0"
           style="stroke-width:0.13268" /></g></clipPath><clipPath
       clipPathUnits="userSpaceOnUse"
       id="clipPath4"><g
         id="g5"
         style="stroke-width:0.13268"
         transform="matrix(7.5369401,0,0,-7.5369401,266.00943,494.94433)"><path
           d="M -35.294089,-15.569139 H 78.66436 V 65.669135 H -35.294089 Z"
           id="path5"
           inkscape:connector-curvature="0"
           style="stroke-width:0.13268" /></g></clipPath><clipPath
       clipPathUnits="userSpaceOnUse"
       id="clipPath5"><g
         id="g6"
         style="stroke-width:0.13268"
         transform="matrix(7.5369401,0,0,-7.5369401,-162.91437,237.54763)"><path
           d="M -35.294089,-15.569139 H 78.66436 V 65.669135 H -35.294089 Z"
           id="path6"
           inkscape:connector-curvature="0"
           style="stroke-width:0.13268" /></g></clipPath><clipPath
       clipPathUnits="userSpaceOnUse"
       id="clipPath6"><g
         id="g7"
         style="stroke-width:0.13268"
         transform="matrix(7.5369401,0,0,-7.5369401,-220.91217,246.95083)"><path
           d="M -35.294089,-15.569139 H 78.66436 V 65.669135 H -35.294089 Z"
           id="path7"
           inkscape:connector-curvature="0"
           style="stroke-width:0.13268" /></g></clipPath><clipPath
       clipPathUnits="userSpaceOnUse"
       id="clipPath7"><g
         id="g8"
         style="stroke-width:0.13268"
         transform="matrix(7.5369401,0,0,-7.5369401,-117.67937,101.55724)"><path
           d="M -35.294089,-15.569139 H 78.66436 V 65.669135 H -35.294089 Z"
           id="path8"
           inkscape:connector-curvature="0"
           style="stroke-width:0.13268" /></g></clipPath><clipPath
       clipPathUnits="userSpaceOnUse"
       id="clipPath8"><g
         id="g9"
         style="stroke-width:0.13268"
         transform="matrix(7.5369401,0,0,-7.5369401,-257.04107,182.47484)"><path
           d="M -35.294089,-15.569139 H 78.66436 V 65.669135 H -35.294089 Z"
           id="path9"
           inkscape:connector-curvature="0"
           style="stroke-width:0.13268" /></g></clipPath><clipPath
       clipPathUnits="userSpaceOnUse"
       id="clipPath9"><g
         id="g10"
         style="stroke-width:0.13268"
         transform="matrix(7.5369401,0,0,-7.5369401,-203.38527,282.85434)"><path
           d="M -35.294089,-15.569139 H 78.66436 V 65.669135 H -35.294089 Z"
           id="path10"
           inkscape:connector-curvature="0"
           style="stroke-width:0.13268" /></g></clipPath><clipPath
       clipPathUnits="userSpaceOnUse"
       id="clipPath10"><g
         id="g11"
         style="stroke-width:0.13268"
         transform="matrix(7.5369401,0,0,-7.5369401,-187.62667,276.56563)"><path
           d="M -35.294089,-15.569139 H 78.66436 V 65.669135 H -35.294089 Z"
           id="path11"
           inkscape:connector-curvature="0"
           style="stroke-width:0.13268" /></g></clipPath><clipPath
       clipPathUnits="userSpaceOnUse"
       id="clipPath11"><g
         id="g12"
         style="stroke-width:0.13268"
         transform="matrix(7.5369401,0,0,-7.5369401,-167.21557,289.05764)"><path
           d="M -35.294089,-15.569139 H 78.66436 V 65.669135 H -35.294089 Z"
           id="path12"
           inkscape:connector-curvature="0"
           style="stroke-width:0.13268" /></g></clipPath><clipPath
       clipPathUnits="userSpaceOnUse"
       id="clipPath12"><g
         id="g13"
         style="stroke-width:0.13268"
         transform="matrix(7.5369401,0,0,-7.5369401,-159.23317,289.05764)"><path
           d="M -35.294089,-15.569139 H 78.66436 V 65.669135 H -35.294089 Z"
           id="path13"
           inkscape:connector-curvature="0"
           style="stroke-width:0.13268" /></g></clipPath><clipPath
       clipPathUnits="userSpaceOnUse"
       id="clipPath13"><g
         id="g14"
         style="stroke-width:0.999999"><path
           d="M -35.294089,-15.569139 H 78.66436 V 65.669135 H -35.294089 Z"
           id="path14"
           inkscape:connector-curvature="0"
           style="stroke-width:0.999999" /></g></clipPath><clipPath
       clipPathUnits="userSpaceOnUse"
       id="clipPath14"><g
         id="g15"
         style="stroke-width:0.13268"
         transform="matrix(7.5369401,0,0,-7.5369401,-130.58046,276.56563)"><path
           d="M -35.294089,-15.569139 H 78.66436 V 65.669135 H -35.294089 Z"
           id="path15"
           inkscape:connector-curvature="0"
           style="stroke-width:0.13268" /></g></clipPath><clipPath
       clipPathUnits="userSpaceOnUse"
       id="clipPath15"><g
         id="g17"
         style="stroke-width:0.13268"
         transform="matrix(7.5369401,0,0,-7.5369401,-112.95136,289.05764)"><path
           d="M -35.294089,-15.569139 H 78.66436 V 65.669135 H -35.294089 Z"
           id="path17"
           inkscape:connector-curvature="0"
           style="stroke-width:0.13268" /></g></clipPath><clipPath
       clipPathUnits="userSpaceOnUse"
       id="clipPath17"><g
         id="g18"
         style="stroke-width:0.13268"
         transform="matrix(7.5369401,0,0,-7.5369401,-102.97056,276.56563)"><path
           d="M -35.294089,-15.569139 H 78.66436 V 65.669135 H -35.294089 Z"
           id="path18"
           inkscape:connector-curvature="0"
           style="stroke-width:0.13268" /></g></clipPath><clipPath
       clipPathUnits="userSpaceOnUse"
       id="clipPath18"><g
         id="g19"
         style="stroke-width:0.13268"
         transform="matrix(7.5369401,0,0,-7.5369401,-75.805269,289.05764)"><path
           d="M -35.294089,-15.569139 H 78.66436 V 65.669135 H -35.294089 Z"
           id="path19"
           inkscape:connector-curvature="0"
           style="stroke-width:0.13268" /></g></clipPath><clipPath
       clipPathUnits="userSpaceOnUse"
       id="clipPath19"><g
         id="g21"
         style="stroke-width:0.13268"
         transform="matrix(7.5369401,0,0,-7.5369401,-67.375767,277.50033)"><path
           d="M -35.294089,-15.569139 H 78.66436 V 65.669135 H -35.294089 Z"
           id="path20"
           inkscape:connector-curvature="0"
           style="stroke-width:0.13268" /></g></clipPath><clipPath
       clipPathUnits="userSpaceOnUse"
       id="clipPath21"><g
         id="g22"
         style="stroke-width:0.13268"
         transform="matrix(7.5369401,0,0,-7.5369401,-51.446567,277.24544)"><path
           d="M -35.294089,-15.569139 H 78.66436 V 65.669135 H -35.294089 Z"
           id="path21"
           inkscape:connector-curvature="0"
           style="stroke-width:0.13268" /></g></clipPath><clipPath
       clipPathUnits="userSpaceOnUse"
       id="clipPath22"><g
         id="g23"
         style="stroke-width:0.13268"
         transform="matrix(7.5369401,0,0,-7.5369401,-34.539667,289.18534)"><path
           d="M -35.294089,-15.569139 H 78.66436 V 65.669135 H -35.294089 Z"
           id="path23"
           inkscape:connector-curvature="0"
           style="stroke-width:0.13268" /></g></clipPath></defs><sodipodi:namedview
     id="base"
     pagecolor="#ffffff"
     bordercolor="#666666"
     borderopacity="1.0"
     inkscape:pageopacity="0.0"
     inkscape:pageshadow="2"
     inkscape:zoom="2.9190231"
     inkscape:cx="93.181859"
     inkscape:cy="72.798328"
     inkscape:document-units="cm"
     inkscape:current-layer="layer3"
     inkscape:document-rotation="0"
     showgrid="true"
     showguides="true"
     inkscape:window-width="1698"
     inkscape:window-height="817"
     inkscape:window-x="153"
     inkscape:window-y="103"
     inkscape:window-maximized="0"
     inkscape:snap-global="true"
     units="cm"
     inkscape:snap-bbox="false"
     inkscape:snap-intersection-paths="true"
     inkscape:object-paths="true"
     inkscape:snap-nodes="true"
     inkscape:snap-smooth-nodes="true"
     inkscape:snap-midpoints="false"
     fit-margin-top="0"
     fit-margin-left="0"
     fit-margin-right="0"
     fit-margin-bottom="0"
     inkscape:showpageshadow="2"
     inkscape:pagecheckerboard="0"
     inkscape:deskcolor="#d1d1d1"><inkscape:grid
       type="axonomgrid"
       id="grid1432"
       spacingy="0.3175"
       originx="21.997162"
       originy="0"
       empspacing="10"
       gridanglex="30"
       gridanglez="30"
       units="in"
       visible="true" /><inkscape:grid
       type="axonomgrid"
       id="grid1"
       units="in"
       originx="21.997162"
       originy="0"
       spacingx="0"
       spacingy="3.175"
       empcolor="#3f3fff"
       empopacity="0.25098039"
       color="#3f3fff"
       opacity="0.12549"
       empspacing="4"
       dotted="false"
       gridanglex="30"
       gridanglez="30"
       visible="true" /></sodipodi:namedview><metadata
     id="metadata866"><rdf:RDF><cc:Work
         rdf:about=""><dc:format>image/svg+xml</dc:format><dc:type
           rdf:resource="http://purl.org/dc/dcmitype/StillImage" /></cc:Work></rdf:RDF></metadata><g
     inkscape:groupmode="layer"
     id="layer3"
     inkscape:label="background"><path
       id="rect27"
       style="fill:#5d48a7;fill-opacity:1;stroke:none;stroke-width:0.549926;stroke-linejoin:round;stroke-miterlimit:0;paint-order:stroke markers fill"
       d="M -2.7497029 -1.5875 L -2.7497029 52.3875 L 46.743916 52.3875 L 46.743916 -1.5875 L -2.7497029 -1.5875 z M 21.997107 3.175 L 41.244511 14.2875 L 41.244511 36.5125 L 21.997107 47.625 L 2.7497029 36.5125 L 2.7497029 14.2875 L 21.997107 3.175 z " /></g><g
     inkscape:label="sticker"
     inkscape:groupmode="layer"
     id="layer1"
     style="display:inline;stroke-width:1.12643"
     transform="matrix(0.88776315,0,0,0.88776315,0.75236401,4.6564258)"><g
       id="g31"
       transform="translate(8.6258521,-2.2328707)"><g
         id="g27"
         style="stroke-width:1.12643"><g
           id="g20"
           transform="matrix(0.13267984,0,0,-0.13267984,4.5827175,38.369064)"
           style="stroke-width:2.99501"
           clip-path="url(#clipPath22)"><path
             d="m 0,0 c -1.657,0 -3.017,0.595 -4.079,1.658 -1.529,1.529 -1.486,3.42 -1.486,6.033 0,2.613 -0.043,4.504 1.486,6.034 1.062,1.062 2.422,1.656 4.079,1.656 2.826,0 5.036,-1.614 5.566,-4.779 H 2.571 c -0.298,1.211 -1.063,2.145 -2.549,2.145 -0.808,0 -1.466,-0.297 -1.891,-0.786 -0.574,-0.637 -0.743,-1.359 -0.743,-4.27 0,-2.911 0.169,-3.633 0.743,-4.27 0.425,-0.489 1.083,-0.786 1.891,-0.786 1.486,0 2.251,0.934 2.549,2.145 H 5.566 C 5.036,1.615 2.804,0 0,0"
             style="fill:#231f20;fill-opacity:1;fill-rule:nonzero;stroke:none;stroke-width:2.99501"
             id="path22"
             inkscape:connector-curvature="0" /></g><g
           id="g24"
           transform="matrix(0.13267984,0,0,-0.13267984,6.8259223,36.78488)"
           style="stroke-width:2.99501"
           clip-path="url(#clipPath21)"><path
             d="m 0,0 c -0.425,0.489 -1.083,0.808 -1.89,0.808 -0.808,0 -1.488,-0.319 -1.913,-0.808 -0.573,-0.637 -0.722,-1.338 -0.722,-4.249 0,-2.911 0.149,-3.612 0.722,-4.249 0.425,-0.489 1.105,-0.807 1.913,-0.807 0.807,0 1.465,0.318 1.89,0.807 0.574,0.637 0.743,1.338 0.743,4.249 C 0.743,-1.338 0.574,-0.637 0,0 m 2.189,-10.282 c -1.063,-1.063 -2.358,-1.658 -4.079,-1.658 -1.721,0 -3.039,0.595 -4.101,1.658 -1.53,1.529 -1.487,3.42 -1.487,6.033 0,2.613 -0.043,4.504 1.487,6.034 1.062,1.062 2.38,1.657 4.101,1.657 1.721,0 3.016,-0.595 4.079,-1.657 1.529,-1.53 1.508,-3.421 1.508,-6.034 0,-2.613 0.021,-4.504 -1.508,-6.033"
             style="fill:#231f20;fill-opacity:1;fill-rule:nonzero;stroke:none;stroke-width:2.99501"
             id="path26"
             inkscape:connector-curvature="0" /></g><g
           id="g28"
           transform="matrix(0.13267984,0,0,-0.13267984,8.939406,36.8187)"
           style="stroke-width:2.99501"
           clip-path="url(#clipPath19)"><path
             d="m 0,0 c -0.51,0.616 -1.19,0.935 -2.21,0.935 h -2.23 v -9.858 h 2.23 c 1.02,0 1.7,0.319 2.21,0.935 0.553,0.68 0.637,1.763 0.637,4.058 C 0.637,-1.636 0.553,-0.68 0,0 m 2.061,-10.113 c -0.999,-0.998 -2.422,-1.444 -3.994,-1.444 h -5.46 V 3.569 h 5.46 c 1.572,0 2.995,-0.446 3.994,-1.445 C 3.76,0.425 3.59,-1.657 3.59,-3.93 c 0,-2.273 0.17,-4.483 -1.529,-6.183"
             style="fill:#231f20;fill-opacity:1;fill-rule:nonzero;stroke:none;stroke-width:2.99501"
             id="path30"
             inkscape:connector-curvature="0" /></g><g
           id="g32"
           transform="matrix(0.13267984,0,0,-0.13267984,10.057831,38.352121)"
           style="stroke-width:2.99501"
           clip-path="url(#clipPath18)"><path
             d="M 0,0 V 15.127 H 9.964 V 12.492 H 2.953 V 8.944 H 8.922 V 6.31 H 2.953 V 2.635 H 9.964 V 0 Z"
             style="fill:#231f20;fill-opacity:1;fill-rule:nonzero;stroke:none;stroke-width:2.99501"
             id="path34"
             inkscape:connector-curvature="0" /></g></g><g
         id="g26"
         transform="translate(-0.82305243)"
         style="stroke-width:1.12643"><g
           id="g36"
           transform="matrix(0.13267984,0,0,-0.13267984,13.662118,36.694684)"
           style="stroke-width:2.99501"
           clip-path="url(#clipPath17)"><path
             d="M 0,0 H -2.783 V -3.994 H 0 c 1.296,0 2.146,0.829 2.146,1.997 C 2.146,-0.828 1.296,0 0,0 m 2.294,-12.492 -2.952,6.034 h -2.125 v -6.034 H -5.736 V 2.635 H 0.19 c 3.082,0 4.908,-2.104 4.908,-4.632 0,-2.124 -1.295,-3.442 -2.762,-3.973 l 3.379,-6.522 z"
             style="fill:#231f20;fill-opacity:1;fill-rule:nonzero;stroke:none;stroke-width:2.99501"
             id="path38"
             inkscape:connector-curvature="0" /></g><g
           id="g40"
           transform="matrix(0.13267984,0,0,-0.13267984,14.986369,38.352121)"
           style="stroke-width:2.99501"
           clip-path="url(#clipPath15)"><path
             d="M 0,0 V 15.127 H 9.964 V 12.492 H 2.953 V 8.944 H 8.922 V 6.31 H 2.953 V 2.635 H 9.964 V 0 Z"
             style="fill:#231f20;fill-opacity:1;fill-rule:nonzero;stroke:none;stroke-width:2.99501"
             id="path42"
             inkscape:connector-curvature="0" /></g><g
           id="g44"
           transform="matrix(0.13267984,0,0,-0.13267984,17.325395,36.694684)"
           style="stroke-width:2.99501"
           clip-path="url(#clipPath14)"><path
             d="M 0,0 V -3.718 H 5.969 V -6.352 H 0 v -6.14 H -2.953 V 2.635 H 7.011 V 0 Z"
             style="fill:#231f20;fill-opacity:1;fill-rule:nonzero;stroke:none;stroke-width:2.99501"
             id="path46"
             inkscape:connector-curvature="0" /></g><path
           d="m 18.83849,36.345166 h 0.391803 v 2.007047 H 18.83849 Z"
           style="fill:#231f20;fill-opacity:1;fill-rule:nonzero;stroke:none;stroke-width:0.397377"
           id="path48"
           inkscape:connector-curvature="0"
           clip-path="url(#clipPath13)" /><g
           id="g50"
           transform="matrix(0.13267984,0,0,-0.13267984,21.127031,38.352121)"
           style="stroke-width:2.99501"
           clip-path="url(#clipPath12)"><path
             d="M 0,0 -5.991,9.284 V 0 h -2.953 v 15.127 h 2.633 l 5.992,-9.263 v 9.263 H 2.633 V 0 Z"
             style="fill:#231f20;fill-opacity:1;fill-rule:nonzero;stroke:none;stroke-width:2.99501"
             id="path52"
             inkscape:connector-curvature="0" /></g><g
           id="g54"
           transform="matrix(0.13267984,0,0,-0.13267984,22.186135,38.352121)"
           style="stroke-width:2.99501"
           clip-path="url(#clipPath11)"><path
             d="M 0,0 V 15.127 H 9.964 V 12.492 H 2.953 V 8.944 H 8.922 V 6.31 H 2.953 V 2.635 H 9.964 V 0 Z"
             style="fill:#231f20;fill-opacity:1;fill-rule:nonzero;stroke:none;stroke-width:2.99501"
             id="path56"
             inkscape:connector-curvature="0" /></g><g
           id="g58"
           transform="matrix(0.13267984,0,0,-0.13267984,24.894276,36.694684)"
           style="stroke-width:2.99501"
           clip-path="url(#clipPath10)"><path
             d="M 0,0 H -2.783 V -3.994 H 0 c 1.296,0 2.146,0.829 2.146,1.997 C 2.146,-0.828 1.296,0 0,0 m 2.294,-12.492 -2.952,6.034 h -2.125 v -6.034 H -5.736 V 2.635 H 0.19 c 3.082,0 4.908,-2.104 4.908,-4.632 0,-2.124 -1.295,-3.442 -2.762,-3.973 l 3.379,-6.522 z"
             style="fill:#231f20;fill-opacity:1;fill-rule:nonzero;stroke:none;stroke-width:2.99501"
             id="path60"
             inkscape:connector-curvature="0" /></g><g
           id="g62"
           transform="matrix(0.13267984,0,0,-0.13267984,26.985125,37.529068)"
           style="stroke-width:2.99501"
           clip-path="url(#clipPath9)"><path
             d="M 0,0 V -6.203 H -2.932 V 0 l -4.546,8.923 h 3.209 l 2.825,-6.097 2.783,6.097 h 3.208 z"
             style="fill:#231f20;fill-opacity:1;fill-rule:nonzero;stroke:none;stroke-width:2.99501"
             id="path64"
             inkscape:connector-curvature="0" /></g></g></g><g
       id="g30"
       transform="translate(2.2704864,-2.7980196)"><g
         id="g29"><g
           id="g25"
           style="stroke-width:1.12643"><g
             id="g66"
             transform="matrix(0.13267984,0,0,-0.13267984,34.104168,24.210732)"
             style="stroke-width:2.99501"
             clip-path="url(#clipPath8)"><path
               d="M 0,0 H 0.002 L 0,-55.101 c 0,-12.382 10.073,-22.455 22.455,-22.455 h 18.836 v 13.141 H 22.455 c -5.122,0 -9.313,4.191 -9.313,9.314 L 13.144,0 H 41.291 V 13.49 H 0 Z"
               style="fill:#28aae1;fill-opacity:1;fill-rule:nonzero;stroke:none;stroke-width:2.99501"
               id="path68"
               inkscape:connector-curvature="0" /></g><g
             id="g70"
             transform="matrix(0.13267984,0,0,-0.13267984,15.61368,13.474598)"
             style="stroke-width:2.99501"
             clip-path="url(#clipPath7)"><path
               d="m 0,0 h 35.941 c 5.122,0 9.313,-4.191 9.313,-9.313 l -0.009,-4.234 h 13.141 l 0.01,4.234 c 0,12.382 -10.073,22.455 -22.455,22.455 L 0,13.142 c -12.382,0 -22.455,-10.073 -22.455,-22.455 l -0.171,-122.364 h 0.127 l -0.013,-4.403 c 0,-5.123 -4.174,-9.314 -9.275,-9.314 h -35.632 c -5.101,0 -9.275,4.191 -9.275,9.314 l 0.171,100.646 c 0,5.122 4.174,9.313 9.276,9.313 h 31.302 v 13.142 h -31.302 c -12.332,0 -22.365,-10.073 -22.365,-22.455 l -0.171,-100.646 c 0,-12.382 10.033,-22.455 22.364,-22.455 h 35.632 c 12.331,0 22.364,10.073 22.364,22.455 l 0.171,109.1 h -0.103 l 0.042,17.667 C -9.313,-4.191 -5.122,0 0,0"
               style="fill:#6255a4;fill-opacity:1;fill-rule:nonzero;stroke:none;stroke-width:2.99501"
               id="path72"
               inkscape:connector-curvature="0" /></g><g
             id="g74"
             transform="matrix(0.13267984,0,0,-0.13267984,29.310591,32.765397)"
             style="stroke-width:2.99501"
             clip-path="url(#clipPath6)"><path
               d="m 0,0 h -17.934 l 0.104,91.433 H 9.31 L 9.313,9.313 C 9.313,4.191 5.122,0 0,0 M 77.695,104.924 H -31.045 L -31.183,0 h -0.024 v -9.807 l -0.009,-3.335 h 0.009 13.24 H 0 c 12.382,0 22.455,10.073 22.455,22.455 l -0.003,82.12 h 55.243 z"
               style="fill:#8cc63f;fill-opacity:1;fill-rule:nonzero;stroke:none;stroke-width:2.99501"
               id="path76"
               inkscape:connector-curvature="0" /></g><g
             id="g78"
             transform="matrix(0.13267984,0,0,-0.13267984,21.615452,31.517782)"
             style="stroke-width:2.99501"
             clip-path="url(#clipPath5)"><path
               d="m 0,0 c 0,-5.143 -4.208,-9.351 -9.35,-9.351 h -3.722 -1.431 -3.513 c -5.142,0 -9.35,4.208 -9.35,9.351 l 0.172,94.58 h -0.022 l 0.022,5.9 c 0,5.143 4.207,9.35 9.35,9.35 H 0.133 Z m 80.709,100.48 c 0,12.431 -10.113,22.545 -22.545,22.545 h -76.008 c -12.431,0 -22.545,-10.114 -22.545,-22.545 L -40.561,2.365 h 0.01 L -40.561,0 c 0,-12.431 10.114,-22.545 22.545,-22.545 h 3.513 1.431 3.722 c 12.431,0 22.545,10.114 22.545,22.545 l 0.132,109.83 h 2.131 1.34 41.366 c 5.143,0 9.351,-4.207 9.351,-9.35 L 67.512,95.52 H 80.71 Z"
               style="fill:#bf1e2d;fill-opacity:1;fill-rule:nonzero;stroke:none;stroke-width:2.99501"
               id="path80"
               inkscape:connector-curvature="0" /></g></g></g><g
         id="g82"
         style="stroke-width:2.99501"
         transform="matrix(0.13267984,0,0,-0.13267984,-35.294089,65.669135)"
         clip-path="url(#clipPath4)"><g
           id="g84"
           style="stroke-width:2.99501" /><g
           id="g142"
           style="stroke-width:2.99501"><g
             clip-path="url(#clipPath88)"
             id="g140"
             style="opacity:0.699997;stroke-width:2.99501"><g
               id="g138"
               style="stroke-width:2.99501"><g
                 clip-path="url(#clipPath92)"
                 id="g136"
                 style="stroke-width:2.99501"><g
                   id="g134"
                   style="stroke-width:2.99501"><g
                     id="g126"
                     style="stroke-width:2.99501" /><g
                     mask="url(#mask106)"
                     id="g132"
                     style="stroke-width:2.99501"><g
                       id="g130"
                       style="stroke-width:2.99501"><path
                         d="m 442.085,380.44 h -13.136 v 5.828 h 13.136 z"
                         style="fill:url(#linearGradient124);stroke:none;stroke-width:2.99501"
                         id="path128"
                         inkscape:connector-curvature="0" /></g></g></g></g></g></g></g></g><g
         id="g144"
         style="stroke-width:2.99501"
         transform="matrix(0.13267984,0,0,-0.13267984,-35.294089,65.669135)"
         clip-path="url(#clipPath3)"><g
           id="g146"
           style="stroke-width:2.99501" /><g
           id="g204"
           style="stroke-width:2.99501"><g
             clip-path="url(#clipPath150)"
             id="g202"
             style="opacity:0.699997;stroke-width:2.99501"><g
               id="g200"
               style="stroke-width:2.99501"><g
                 clip-path="url(#clipPath154)"
                 id="g198"
                 style="stroke-width:2.99501"><g
                   id="g196"
                   style="stroke-width:2.99501"><g
                     id="g188"
                     style="stroke-width:2.99501" /><g
                     mask="url(#mask168)"
                     id="g194"
                     style="stroke-width:2.99501"><g
                       id="g192"
                       style="stroke-width:2.99501"><path
                         d="m 509.633,352.917 h -13.196 v 5.851 h 13.196 z"
                         style="fill:url(#linearGradient186);stroke:none;stroke-width:2.99501"
                         id="path190"
                         inkscape:connector-curvature="0" /></g></g></g></g></g></g></g></g><g
         id="g206"
         style="stroke-width:2.99501"
         transform="matrix(0.13267984,0,0,-0.13267984,-35.294089,65.669135)"
         clip-path="url(#clipPath2)"><g
           id="g208"
           style="stroke-width:2.99501" /><g
           id="g266"
           style="stroke-width:2.99501"><g
             clip-path="url(#clipPath212)"
             id="g264"
             style="opacity:0.699997;stroke-width:2.99501"><g
               id="g262"
               style="stroke-width:2.99501"><g
                 clip-path="url(#clipPath216)"
                 id="g260"
                 style="stroke-width:2.99501"><g
                   id="g258"
                   style="stroke-width:2.99501"><g
                     id="g250"
                     style="stroke-width:2.99501" /><g
                     mask="url(#mask230)"
                     id="g256"
                     style="stroke-width:2.99501"><g
                       id="g254"
                       style="stroke-width:2.99501"><path
                         d="m 496.235,339.427 h 13.139 v -6.008 h -13.139 z"
                         style="fill:url(#linearGradient248);stroke:none;stroke-width:2.99501"
                         id="path252"
                         inkscape:connector-curvature="0" /></g></g></g></g></g></g></g></g><g
         id="g268"
         style="stroke-width:2.99501"
         transform="matrix(0.13267984,0,0,-0.13267984,-35.294089,65.669135)"
         clip-path="url(#clipPath1)"><g
           id="g270"
           style="stroke-width:2.99501" /><g
           id="g328"
           style="stroke-width:2.99501"><g
             clip-path="url(#clipPath274)"
             id="g326"
             style="opacity:0.699997;stroke-width:2.99501"><g
               id="g324"
               style="stroke-width:2.99501"><g
                 clip-path="url(#clipPath278)"
                 id="g322"
                 style="stroke-width:2.99501"><g
                   id="g320"
                   style="stroke-width:2.99501"><g
                     id="g312"
                     style="stroke-width:2.99501" /><g
                     mask="url(#mask292)"
                     id="g318"
                     style="stroke-width:2.99501"><g
                       id="g316"
                       style="stroke-width:2.99501"><path
                         d="m 429.056,367.227 h 13.208 v -5.99 h -13.208 z"
                         style="fill:url(#linearGradient310);stroke:none;stroke-width:2.99501"
                         id="path314"
                         inkscape:connector-curvature="0" /></g></g></g></g></g></g></g></g></g></g><g
     inkscape:groupmode="layer"
     id="layer2"
     inkscape:label="cut line"
     style="display:inline"
     transform="translate(0.33694334,0.3500015)"><path
       style="fill:none;stroke:#ff00ff;stroke-width:0.549926;stroke-linecap:butt;stroke-linejoin:miter;stroke-dasharray:none;stroke-opacity:1"
       d="M 21.660219,-0.66750149 43.932227,12.191248 v 25.7175 L 21.660219,50.767497 -0.6117891,37.908748 v -25.7175 z"
       id="path1"
       sodipodi:nodetypes="ccccccc" /></g></svg>
